# xmcd CD database file
#
# Track frame offsets:
#	150
#	41351
#	61397
#	81251
#	107459
#	127932
#	147796
#	170288
#	191786
#	209387
#	241108
#
# Disc length: 3659 seconds
#
# Revision: 1
# Processed by: cddbd v1.5.2PL0 Copyright (c) Steve Scherf et al.
# Submitted via: CDex 1.70beta2
#
DISCID=8d0e490b
DTITLE=The Paladins - Power Shake [CD2)
DYEAR=2007
DGENRE=Rockabilly
TTITLE0=Going Down To Big Mary's
TTITLE1=You Make It, They Take It
TTITLE2=Make Me Feel So Good
TTITLE3=Kiddio
TTITLE4=Follow Your Heart
TTITLE5=Lett's Buzz
TTITLE6=15 Days Under The Hood
TTITLE7=El Matador
TTITLE8=Bad Case Of Love
TTITLE9=She's Fine
TTITLE10=Mercy
EXTD=YEAR: 2007
EXTT0=
EXTT1=
EXTT2=
EXTT3=
EXTT4=
EXTT5=
EXTT6=
EXTT7=
EXTT8=
EXTT9=
EXTT10=
PLAYORDER=
